<?xml version="1.0" encoding="UTF-8"?>
<!-- Generator: Adobe Illustrator 21.1.0, SVG Export Plug-In . SVG Version: 6.00 Build 0)  -->
<svg version="1.1" id="Capa_1" xmlns="http://www.w3.org/2000/svg" xmlns:xlink="http://www.w3.org/1999/xlink" x="0px" y="0px" viewBox="0 0 393 111" style="enable-background:new 0 0 393 111;" xml:space="preserve">
<style type="text/css">
	.st0{display:none;}
	.st1{display:inline;fill:#FFFFFF;}
	.st2{fill:#C10000;}
	.st3{display:inline;}
	.st4{fill:#E7E9EA;}
	.st5{fill:#F8DD08;}
	.st6{fill:#7A868C;}
	.st7{display:none;fill:none;}
	.st8{fill:#FFA817;}
	.st9{fill:#FF0005;}
	.st10{fill:#FFFFFF;}
</style>
<g id="Capa_2" class="st0">
	<rect class="st1" width="393" height="111"/>
</g>
<g id="Capa_1_1_">
	<path d="M25.4,83.2h15.9L43.1,64c0.5-1.7,0.5-3.8,0.5-5.5H44c0.5,1.7,0.5,3.8,1.3,5.5l6,19.2h9.5l6.5-20c0.5-1.3,0.8-3,1.3-4.3h0.5   l2.2,24.8H87l-7.3-45.2h-17L57.6,56c-0.5,1.7-0.8,4.3-1.3,6h-0.5l-6.4-23.5H32.3L25.4,83.2z"/>
	<path d="M117.6,38v25.2c0,3.4-0.5,6.4-4.3,6.4c-4.3,0-4.3-3-4.3-6.4V38H92.5v26.5c0,13.2,8.6,19.2,20.7,19.2   c12.5,0,20.7-6,20.7-19.2V38C134,38,117.6,38,117.6,38z"/>
	<polygon points="141.7,83.2 172.2,83.2 172.2,68.7 158,68.7 158,38 141.7,38  "/>
	<polygon points="171.5,52.5 180.9,52 180.9,83.2 197.3,83.2 197.3,52 206.3,52.5 206.3,38 171.5,38  "/>
	<rect x="210.7" y="38" width="16.4" height="45.2"/>
	<path class="st2" d="M257.3,71.7c-1.3,0.5-3.5,1.3-5.6,1.3c-3,0-5.1-2.5-5.1-7.3c0-9.4,5.1-16.2,10.8-16.2c1.3,0,1.7,0.5,3.5,0.5   l3.5-10.7c-1.3-0.5-3-0.8-6-0.8c-13.8,0-24.5,12.4-24.5,29.5c0,7.7,4.3,16.2,14.6,16.2c4.3,0,7.3-0.5,8.1-1.3L257.3,71.7z"/>
	<path class="st2" d="M296.3,83.2c0-4.7,0.8-13.7,1.7-18.3l4.8-24.3c-3.5-1.3-8.1-1.7-13.4-1.7c-20.2,0-26.3,18.8-26.3,32   c0,7.7,3.5,13.7,10.3,13.7c3.8,0,7.8-2.5,11.2-7.7h0.5c-0.5,2.5-0.5,4.7-0.5,7.3L296.3,83.2L296.3,83.2z M285.6,61.4   c-1.7,7.7-3.8,11.1-6,11.1c-2.6,0-3-2.5-3-5.5c0-5.1,3.5-19.2,9.9-19.2c0.5,0,1.3,0.5,2.2,0.5L285.6,61.4z"/>
	<path class="st2" d="M299.4,100.7c6.9,0,11.6-2.5,14.2-7.3c1.7-3,3.5-6.8,4.8-15.3l7.8-40.2h-13.8l0.1,0.8l0,0l-7.8,41.4   c-1.7,8.5-3.8,10.7-7.3,10.7c-0.8,0-1.3-0.5-2.2-0.5l-1.3,9.8"/>
	<path class="st2" d="M320.6,34.1c3.8,0,7.3-3,7.3-7.7c0-3.4-1.7-6.4-6-6.4c-4.8,0-7.3,4.3-7.3,7.7   C314.6,31.2,315.8,34.1,320.6,34.1L320.6,34.1z"/>
	<path class="st2" d="M360.5,83.2c0-4.7,0.8-13.7,1.7-18.3l4.8-24.3c-3.5-1.3-8.1-1.7-13.4-1.7c-20.2,0-26.3,18.8-26.3,32   c0,7.7,3.5,13.7,10.3,13.7c3.5,0,7.8-2.5,11.2-7.7h0.5c-0.5,2.5-0.5,4.7-0.5,7.3L360.5,83.2L360.5,83.2z M349.9,61.4   c-1.7,7.7-3.8,11.1-6,11.1c-2.6,0-3-2.5-3-5.5c0-5.1,3.5-19.2,9.9-19.2c0.5,0,1.3,0.5,2.2,0.5L349.9,61.4z"/>
</g>
<g id="Capa_3" class="st0">
	<g id="Capa_1_3_" class="st3">
		<g id="Capa_2_1_" class="st0">
		</g>
		<g id="Capa_1_2_">
			<g id="layer1">
				<path class="st4" d="M250.5,102.5c-1-0.1-2.3-0.6-2.9-1c-0.8-0.5-0.8-0.6-0.1-0.3c4.8,1.5,18.3,1.5,23.5,0.1      c3.6-1,4.1-0.7,0.7,0.4C268.8,102.5,254,103.1,250.5,102.5z"/>
				<path class="st4" d="M244.3,100.6c-1.2-0.6-1.3-0.7-0.3-0.5c0.7,0.1,1.5,0.3,1.8,0.3s0.6,0.3,0.6,0.5      C246.4,101.6,246,101.5,244.3,100.6z"/>
				<path class="st4" d="M275,100.1c0.3-0.3,1-0.5,1.5-0.5c0.6,0,0.6,0.1,0,0.5c-0.3,0.3-1,0.5-1.5,0.5      C274.5,100.5,274.5,100.5,275,100.1z"/>
				<path class="st4" d="M277.5,99.3c0-0.1,1.3-1,3-1.7c1.6-0.8,3.6-1.9,4.3-2.4c0.7-0.5,1.3-0.8,1.3-0.5s-1.1,1-5.6,3.6      C277.9,99.5,277.5,99.7,277.5,99.3z"/>
				<path class="st4" d="M238,98.1c-2.9-1.5-3.2-2.1-0.3-0.7c2.9,1.5,3.3,1.6,2.6,1.6C240.1,99,239.1,98.6,238,98.1z"/>
				<path class="st4" d="M232,94.4c-1.5-1-3.2-2.4-3.8-3.2c-0.8-1,0.1-0.3,2.6,1.5c4.3,3.4,4.3,3.4,4,3.4      C234.8,96.2,233.5,95.4,232,94.4z"/>
				<path class="st4" d="M287.8,93.1c0.8-0.7,2.1-1.7,2.9-2.2l1.5-1l-1.3,1.4c-0.7,0.8-2,1.7-2.9,2.2l-1.5,0.8L287.8,93.1z"/>
				<path class="st4" d="M223.7,86.7c-2.3-2.8-5.2-7.3-6.8-10.5c-1.6-3.4-3.9-10.6-3.8-12.5c0.1-1,0.1-1,0.3-0.3      c2.2,10.1,5.6,17.3,10.9,23.1c1,1.1,1.5,2,1.4,2C225.3,88.5,224.4,87.7,223.7,86.7z"/>
				<path class="st4" d="M293.7,87.8c1-1.5,4.4-5.7,4.9-6.2c0.8-0.8-0.1,0.8-2.1,3.4c-1,1.3-2.2,2.8-2.7,3.1      C293,88.8,293,88.8,293.7,87.8z"/>
				<path class="st4" d="M65.4,76c-1.8-6.1-2.5-9.1-2.4-10.7c0-0.7,0.4,0.6,1,2.9c0.5,2.4,1.5,6.2,2.2,8.5c0.8,2.3,1.2,4.1,1.1,4.1      C67.1,80.9,66.3,78.7,65.4,76z"/>
				<path class="st4" d="M300,78.9c0.7-1.2,2-3.8,2.8-5.7c0.8-1.9,1.3-2.9,1.1-2.1c-0.4,2.1-3.8,9.2-4.5,9.6      C299.1,80.9,299.3,80.1,300,78.9z"/>
				<path class="st4" d="M321.5,76.7c0.8-2.3,1.7-6.2,2.2-8.5c0.5-2.6,1-3.7,1-2.7c0.1,0.8-0.1,2.5-0.5,3.6      c-1,4.3-3.4,11.7-3.8,11.7C320.4,80.9,320.8,79,321.5,76.7z"/>
				<path class="st4" d="M215.9,79.4c-0.7-1-2.5-5.2-2.2-5.5c0.1-0.1,0.4,0.3,0.7,1s1,2.1,1.5,3.2C216.7,79.9,216.9,80.4,215.9,79.4      z"/>
				<path class="st4" d="M303.7,76.4c1-2,1.8-3.4,1.9-3.4c0.3,0.3-2.9,6.9-3.3,6.9C302.2,79.9,302.8,78.3,303.7,76.4z"/>
				<path class="st4" d="M305.7,71.8c0-0.3,0.3-1,0.5-1.5c0.4-0.6,0.5-0.6,0.5,0c0,0.3-0.3,1-0.5,1.5      C305.7,72.4,305.7,72.4,305.7,71.8z"/>
				<path class="st4" d="M82.3,70.8c-3.2-0.6-2.9-0.3-2.4-4.8c0.3-1.6,0.5-2.2,1-2.1c2.3,1,5.2,1.4,8.5,1.5c2.9,0.1,3.8-0.1,4.7-0.8      c2.3-2.1,0.5-4.1-5.2-5.7c-7.2-2-9.5-4.1-9.5-8.7c0-4.8,3.9-8,11-8.8c3.4-0.5,11.4,0.1,12,0.8c0.1,0.1,0.1,1.5,0.1,3.1      c-0.1,2.8-0.1,2.9-1.5,2.5c-2.2-0.5-8.5-1-9.9-0.6c-1.4,0.3-2.7,1.5-2.7,2.4c0,1.1,2,2.2,6.9,3.6c5.2,1.5,6.6,2.3,8,4.5      s1.3,6.4-0.1,8.5c-1.3,1.9-3.6,3.6-6.1,4.3C94.3,71.2,85.6,71.4,82.3,70.8z"/>
				<path class="st4" d="M106.8,56.3V41.7h11.7h11.7v2.6v2.6H123h-7.1V50v3h6.9h7l-0.1,2.8l-0.1,2.8h-6.8H116v3.2V65l7.5,0.1      l7.5,0.1v2.6v2.6l-12,0.1l-12.1,0.1L106.8,56.3L106.8,56.3C106.8,56.2,106.8,56.3,106.8,56.3z"/>
				<path class="st4" d="M134.2,56.3V41.7h10.2c9.9,0,10.3,0.1,12.5,1.2c2.9,1.5,4.1,3.4,4.1,6.3c0,2.8-1.4,4.9-3.8,6.2l-2,1l1.2,1      c0.7,0.6,2.1,3.3,3.7,7.3l2.6,6.3H158h-4.7l-1.7-4.5c-2.2-5.7-3.4-7-6.2-7h-2.2v5.7v5.7h-4.5h-4.5      C134.2,70.9,134.2,56.3,134.2,56.3z M150.2,53c1.5-0.6,1.6-1,1.6-2.4c0-2.2-1.3-3.1-5.5-3.4l-3.2-0.3v3.4v3.4h2.6      C147.3,53.7,149.3,53.3,150.2,53z"/>
				<path class="st4" d="M167.2,57.1c-2.9-7.6-5.5-14.2-5.6-14.6c-0.3-0.8,0.1-0.8,4.5-0.8h4.8l3.7,11.4l3.7,11.3l3.8-11.3l3.8-11.3      l4.5-0.1c2.6-0.1,4.5,0.1,4.5,0.3c0,0.3-2.5,6.9-5.6,14.7L183.7,71h-5.5h-5.6L167.2,57.1z"/>
				<path class="st4" d="M197.3,56.3V41.7h4.5h4.5v14.6v14.6h-4.5h-4.5V56.3z"/>
				<path class="st4" d="M211.3,67.1c-0.4-1.8-0.8-3.8-0.7-4.4c0-0.6,0.4,0.8,1,3.2C212.7,70.9,212.4,71.9,211.3,67.1z"/>
				<path class="st4" d="M304.2,69.1c0-0.3,0.3-1.2,0.5-2.2c0.3-1,0.7-3,1-4.5c0.3-2.4,0.4-2.5,0.4-0.8c0.1,1.9-1,7.3-1.5,7.8      C304.4,69.5,304.2,69.4,304.2,69.1z"/>
				<path class="st4" d="M306.5,68.6c0-0.5,0.1-1,0.4-1s0.3,0.4,0.1,1c-0.1,0.5-0.3,1-0.4,1C306.6,69.5,306.5,69,306.5,68.6z"/>
				<path class="st4" d="M307.6,64.4c0-0.8,0.1-2.5,0.3-3.8c0.3-2.3,0.3-2.3,0.3-0.5c0.1,1-0.1,2.8-0.3,3.8      C307.7,65.6,307.6,65.7,307.6,64.4z"/>
				<path class="st4" d="M62.5,62.1c0-1,0.1-1.6,0.1-1.6c0.1,0,0.3,0.8,0.3,1.6c0.1,0.8,0,1.6-0.1,1.6      C62.7,63.7,62.5,62.9,62.5,62.1z"/>
				<path class="st4" d="M324.6,62.1c0.1-1,0.3-1.6,0.3-1.6c0.1,0,0.1,0.8,0.1,1.6s-0.1,1.6-0.3,1.6      C324.6,63.7,324.6,62.9,324.6,62.1z"/>
				<path class="st4" d="M210.3,59.4c0-1.2,0.1-1.6,0.1-1c0.1,0.6,0.1,1.5,0,2.2C210.4,61.1,210.3,60.6,210.3,59.4z"/>
				<path class="st4" d="M212.7,60.2c0-0.8,0.1-1,0.3-0.6c0.1,0.4,0.1,1.1,0,1.5C212.7,61.3,212.7,60.9,212.7,60.2z"/>
				<path class="st4" d="M62.6,56.1c0-2.2,0.1-3.2,0.1-2c0.1,1.1,0.1,2.9,0,4.1C62.8,59.2,62.6,58.3,62.6,56.1z"/>
				<path class="st4" d="M324.9,56.1c0-2.2,0.1-3.2,0.1-2c0.1,1.1,0.1,2.9,0,4.1C325,59.2,324.9,58.3,324.9,56.1z"/>
				<path class="st4" d="M306.2,56.1c0-1.5,0.1-2.1,0.1-1.3c0.1,0.7,0.1,1.9,0,2.6C306.4,58.1,306.2,57.4,306.2,56.1z"/>
				<path class="st4" d="M210.3,53c0-1,0.1-1.5,0.1-0.8c0.1,0.6,0.1,1.5,0,1.9C210.3,54.4,210.2,54,210.3,53z"/>
				<path class="st4" d="M307.9,50.8c-0.1-2-0.3-3.6-0.1-3.7c0.3-0.3,0.8,4.8,0.7,6.2C308.3,53.8,308.1,52.8,307.9,50.8z"/>
				<path class="st4" d="M212.7,52.2c0-0.7,0.1-1,0.3-0.6c0.1,0.3,0.1,0.8,0,1.2C212.7,53.2,212.7,52.9,212.7,52.2z"/>
				<path class="st4" d="M305.4,49.9c-0.7-5.8-2.9-12.2-6.6-18.4c-1.3-2.2-1.3-2.2-0.1-1c3.4,4,7.8,16.4,7.3,20.8      C305.8,52.5,305.8,52.2,305.4,49.9z"/>
				<path class="st4" d="M62.8,48.9c0.3-3.4,1.6-10.2,2-9.9c0.1,0.3-0.3,3.8-1.7,10.6C62.5,52.1,62.5,51.9,62.8,48.9z"/>
				<path class="st4" d="M324.5,49.3c-0.1-1.4-0.6-4.3-1-6.2c-0.4-2.1-0.7-3.9-0.5-4c0.3-0.3,1.6,6.1,2,9.8      C325.3,52.3,325,52.8,324.5,49.3z"/>
				<path class="st4" d="M210.8,49.2c0-0.8,0.1-2,0.3-2.6l0.3-1.2v1.2c0,0.7-0.1,1.9-0.3,2.6l-0.3,1.5V49.2z"/>
				<path class="st4" d="M213.1,48.8c-0.1-1.2,0.6-4.1,1.7-7.8c0.8-2.6,3-7.1,5.1-10.3c2.2-3.4,7.2-8.9,9.5-10.6      c0.8-0.6-0.3,0.7-2.4,2.8c-7,6.9-11.3,14.7-13.3,24.2C213.4,48.8,213.1,49.5,213.1,48.8z"/>
				<path class="st4" d="M211.7,43.9c0.3-1.5,2.2-7.1,2.4-6.8c0.1,0.1-0.5,2-1.2,4.3C212.3,43.5,211.6,44.7,211.7,43.9z"/>
				<path class="st4" d="M305.7,40.7c-0.6-1.6-1.7-4.3-2.5-5.8s-1.1-2.7-0.8-2.5c1,0.6,5.2,10.6,4.7,11      C306.8,43.5,306.2,42.3,305.7,40.7z"/>
				<path class="st4" d="M65,37.9c0-0.3,0.3-1,0.5-1.5c0.4-0.6,0.5-0.6,0.5,0c0,0.3-0.3,1-0.5,1.5C65,38.6,65,38.6,65,37.9z"/>
				<path class="st4" d="M322.2,37.5c-0.1-0.6-0.3-1.1-0.1-1.3c0.1-0.1,0.3,0.3,0.6,0.8c0.1,0.6,0.3,1.1,0.1,1.3      C322.5,38.4,322.3,38,322.2,37.5z"/>
				<path class="st4" d="M214.5,36.2c0-0.1,0.4-1.1,1-2.2c0.5-1,1-2,1-2.2c0-0.1-33.4-0.3-74.3-0.3H67.7l-0.8,2.1      c-1,2.4-1.3,1.7-0.3-0.8l0.7-1.7H142c52.1,0,74.7,0.1,74.7,0.5c0,0.6-1.9,4.8-2.2,4.8C214.5,36.5,214.5,36.4,214.5,36.2z"/>
				<path class="st4" d="M320.8,33.7l-0.8-2l-9.2-0.1l-9.2-0.1l9.4-0.1l9.5-0.1l0.7,1.7c0.4,1,0.7,2,0.6,2.2      C321.8,35.4,321.2,34.7,320.8,33.7z"/>
				<path class="st4" d="M292.8,24c-2.5-2.6-4.4-4.8-4.3-4.8c0.3,0,9.1,8.8,9.1,9.2C297.6,29.1,297.4,29,292.8,24z"/>
				<path class="st4" d="M286.1,18.2c-0.3-0.3-2.4-1.5-4.4-2.7c-2.1-1.1-3.6-2.1-3.6-2.2c0.3-0.3,9.4,4.8,9.4,5.4      C287.5,19,286.6,18.8,286.1,18.2z"/>
				<path class="st4" d="M233.7,16.9c0.7-0.5,1.5-1,1.7-1s0.5-0.1,0.5-0.3c0-0.3,3.4-2,4.1-2c0.1,0-1.3,1-3.4,2.2      C232.4,18.1,231.7,18.4,233.7,16.9z"/>
				<path class="st4" d="M241.1,12.9c0.5-0.5,7.6-2.8,8.7-2.7c0.6,0-0.6,0.5-2.8,1.1C242.1,13,240.8,13.3,241.1,12.9z"/>
				<path class="st4" d="M276.1,12.9c-0.1-0.1-2.1-0.8-4.3-1.5c-2.2-0.7-3.6-1.2-2.9-1.2c0.6-0.1,2.7,0.4,4.5,1      c3.4,1,4.9,1.8,3.6,1.8C276.5,13.1,276.1,13,276.1,12.9z"/>
				<path class="st4" d="M251.6,9.8c0.3-0.1,0.8-0.1,1.2,0c0.3,0.1,0.1,0.3-0.6,0.3C251.5,10.1,251.3,10.1,251.6,9.8z"/>
				<path class="st4" d="M266.3,9.8c0.3-0.1,0.8-0.1,1,0.1s-0.1,0.3-0.6,0.3C266.2,10.1,265.9,10.1,266.3,9.8z"/>
			</g>
			<g id="layer2">
				<path class="st5" d="M250.9,101.9c-1.3-0.3-2.9-0.5-3.4-0.5c-0.6-0.1-1.1-0.3-1.1-0.3s-1.2-0.6-2.8-1c-1.5-0.3-2.9-0.8-3-1      c-0.1-0.1-1.5-1-3.2-1.8c-3.7-1.9-10.2-7-12.9-10.2c-6.6-7.8-10.3-16.1-11.6-26.8c-1.2-9.5,2-21.4,8.3-30.8      c2-2.9,9.6-10.7,10.3-10.7c0.3,0,0.5-0.1,0.5-0.5c0-0.3,0.1-0.5,0.4-0.5c0.3,0,7.3-3.8,7.7-4.3c0.3-0.3,2-0.8,8.9-2.6      c11.3-2.9,25.4-0.4,35.9,6.5c1.1,0.8,2.2,1.4,2.2,1.4c0.1,0,1.3,1,2.7,2.2c13.6,12.4,18.9,29.4,14.5,46.8      c-1.5,5.8-4.7,12.4-8.4,16.9c-1.5,2-2.9,3.7-2.9,3.9c0,0.1-1.5,1.5-3.4,2.8c-1.8,1.4-3.4,2.8-3.4,3s-0.1,0.3-0.3,0.3      c-0.1-0.1-1,0.1-1.5,0.6c-4,2.8-10.2,5.2-16,6.6C265.1,102.5,254.8,102.5,250.9,101.9z M297.8,70.9c6.1-0.8,5.5,0.1,5.2-8.9      l-0.1-8H296h-6.9v2.6v2.6l2.5,0.1l2.5,0.1v2.9c0,2.7-0.1,2.9-1.2,3.2c-1.7,0.4-5.8-0.1-7.8-1.2c-5.6-2.9-6.8-10-2.4-14      c1-1,2.9-2,4.3-2.4c3.3-1,8.8-1,11.7,0c1.2,0.3,2.3,0.6,2.4,0.5s0.3-1.5,0.6-2.9c0.3-2.4,0.3-2.8-0.6-3.2      c-1.7-1-13.9-1-17.7-0.1c-8.9,2.1-13.2,7.5-12.5,15.7c0.3,3.8,1.5,6.2,4,8.7C279.6,70.6,287.5,72.3,297.8,70.9z M224.8,65.8      l0.1-4.8l4.8-0.5c8.4-1,11.7-3.6,11.7-9.4c0-4-1.3-6.1-4.9-7.8c-2.6-1.3-3-1.3-11.7-1.5l-9-0.1v14.6V71l4.4-0.1l4.4-0.1      L224.8,65.8z M246.7,67.7l1.3-3.1h6.3h6.4l1.2,3l1.2,2.9l4.8,0.1c2.7,0.1,4.8-0.1,4.8-0.3s-2.9-6.8-6.3-14.6l-6.3-14.3h-5.5      h-5.5l-6.2,14c-3.4,7.6-6.2,14.3-6.4,14.6c-0.1,0.4,0.8,0.6,4.3,0.6h4.5L246.7,67.7z"/>
				<path class="st5" d="M224.9,51v-4.2l2.7,0.3c3.2,0.3,5,1.6,5,3.8c0,2.9-1.9,4.3-5.8,4.3h-1.9V51L224.9,51z"/>
				<path class="st5" d="M250.4,58.5c0.1-0.3,1-2.8,2.1-5.5c1-2.9,2-5,2.2-4.8c0.3,0.3,3.8,9.9,3.8,10.5c0,0.1-1.9,0.1-4.1,0.1      C251.9,58.8,250.2,58.8,250.4,58.5z"/>
			</g>
			<g id="layer3">
				<path class="st6" d="M67.4,80.1c-1.1-2.2-3.3-10.6-4.1-16.1c-0.3-2.6-0.3-12,0-14.9c0.8-6.6,2.6-13.6,4.1-16.5      c0.3-0.8,4.4-0.8,74.7-0.8c59.3,0,74.3,0.1,74.1,0.6c-0.1,0.3-1,2.3-2,4.5s-2.2,5.7-2.8,7.8c-1.2,4.8-1.5,13.4-0.8,18.6      c0.8,5.2,4.3,15.7,5.6,16.4c0.3,0.1,0.5,0.5,0.5,0.8s-28.2,0.4-74.5,0.4C71.8,80.9,67.8,80.9,67.4,80.1z M97,70.4      c2.4-0.8,4.8-2.4,6.1-4.3c1.5-2.2,1.5-6.3,0.1-8.5c-1.3-2.2-2.8-3-8-4.5c-4.8-1.4-6.9-2.4-6.9-3.6c0-1,1.3-2.1,2.7-2.4      c1.3-0.3,7.7,0.1,9.9,0.6c1.2,0.3,1.2,0.3,1.5-2.5c0.1-1.5,0.1-2.9-0.1-3.1c-0.6-0.7-8.5-1.3-12-0.8c-7.1,0.8-11,4-11,8.8      c0,4.5,2.3,6.6,9.5,8.7c5.8,1.6,7.6,3.6,5.2,5.7c-1.5,1.5-8.7,1.1-13.1-0.6c-0.5-0.1-0.7,0.3-1,2.1c-0.6,4.5-0.8,4.1,2.4,4.8      C85.6,71.4,94.3,71.2,97,70.4z M131.1,68v-2.6l-7.5-0.1l-7.5-0.1V62v-3.2h6.8h6.8l0.1-2.8l0.1-2.8h-7h-7V50v-3h7.2h7.2v-2.6      v-2.6h-11.7h-11.8v14.6V71l12.1-0.1l12.1-0.3L131.1,68L131.1,68z M143.2,65.1v-5.7h2.2c2.9,0,4,1.2,6.2,7l1.7,4.5h4.7h4.7      l-2.6-6.3c-1.6-4-3-6.6-3.7-7.3l-1.2-1l2-1c2.4-1.2,3.8-3.4,3.8-6.2c0.1-2.9-1.2-4.8-4.1-6.3c-2.3-1.1-2.7-1.2-12.5-1.2h-10.1      v14.6v14.6h4.5h4.5L143.2,65.1L143.2,65.1z M189.3,56.6c3-7.8,5.6-14.4,5.6-14.7s-1.9-0.3-4.5-0.3l-4.5,0.1L182.1,53l-3.7,11.3      L174.7,53L171,41.6h-4.7c-4.4,0-4.8,0.1-4.5,0.8c0.1,0.4,2.8,7,5.6,14.6l5.2,13.7h5.6h5.5L189.3,56.6z M206.4,56.3V41.7h-4.5      h-4.5v14.6v14.6h4.5h4.5V56.3L206.4,56.3z"/>
				<path class="st6" d="M143.2,50.3v-3.5l3.2,0.3c4.1,0.3,5.5,1.2,5.5,3.4c0,1.5-0.1,1.7-1.6,2.4c-1,0.3-2.9,0.7-4.3,0.7h-2.6      L143.2,50.3L143.2,50.3z"/>
				<path class="st6" d="M301.9,80.4c0-0.3,0.1-0.5,0.4-0.5c0.7,0,4.3-8.7,5-12c0.1-0.6,0.4-2.2,0.7-3.7c0.8-3.8,0.6-13.6-0.1-17      c-0.4-1.5-0.8-3.4-1-4.1c-0.3-2.1-3-8.8-4.1-10.2l-1-1.1h9.1c10.3,0,9.2-0.4,11,4.5c1.9,5.6,3,13.2,3,20.2      c0,7.6-1,13.2-3.3,20.2l-1.3,3.9l-9.2,0.1C305,80.9,301.9,80.8,301.9,80.4z"/>
				<path class="st6" d="M283.8,70.6c-3.7-0.8-6.6-2.2-8.9-4.5c-2.6-2.4-3.7-4.8-4-8.7c-0.7-8.1,3.7-13.6,12.5-15.7      c3.8-0.8,16-0.8,17.7,0.1c1,0.5,1,0.8,0.6,3.2c-0.1,1.5-0.5,2.9-0.6,2.9c-0.1,0.1-1.2-0.1-2.4-0.5c-2.9-1-8.5-1-11.7,0      c-1.4,0.3-3.3,1.5-4.3,2.4c-4.4,4-3.2,11.1,2.4,14c2.1,1,6.1,1.6,7.8,1.2c1.1-0.3,1.2-0.5,1.2-3.2v-2.9l-2.5-0.1l-2.5-0.1v-2.6      v-2.6h6.9h6.9l0.1,8c0.1,9.2,0.7,8.2-5.2,8.9C292.9,71.5,287.5,71.5,283.8,70.6z"/>
				<path class="st6" d="M215.8,56.3V41.6l9,0.1c8.7,0.1,9.1,0.1,11.7,1.5c3.6,1.7,4.9,3.8,4.9,7.8c0,5.8-3.3,8.5-11.7,9.4l-4.8,0.5      l-0.1,4.8l-0.1,4.8l-4.4,0.1l-4.4,0.1L215.8,56.3L215.8,56.3z M230.2,54.6c1.7-0.6,2.4-1.6,2.4-3.7s-1.7-3.4-5-3.8l-2.7-0.3V51      v4.1h1.9C227.8,55.1,229.3,54.9,230.2,54.6z"/>
				<path class="st6" d="M236.6,70.4c0.1-0.3,2.9-6.9,6.4-14.6l6.2-14h5.5h5.5l6.3,14.3c3.4,7.8,6.3,14.3,6.3,14.6S270.6,71,268,71      l-4.8-0.1L262,68l-1.2-3h-6.4H248l-1.3,3.1l-1.3,3.1h-4.5C237.3,70.9,236.2,70.8,236.6,70.4z M258.2,58.8      c0-0.5-3.4-10.1-3.8-10.5c-0.1-0.3-1.2,1.9-2.2,4.8c-1,2.8-2,5.2-2.1,5.5c-0.1,0.1,1.6,0.3,3.9,0.3      C256.4,58.9,258.2,58.8,258.2,58.8z"/>
			</g>
			<rect x="51" y="-82" class="st7" width="289.3" height="267"/>
		</g>
	</g>
</g>
<g id="Capa_4" class="st0">
	<g class="st3">
		<g>
			<path d="M12.4,37.6h10.9L32,70.7l8.4-31.6h8.9l8.5,31.6l8.5-33.1h10.9l-14,47.7h-9.9l-8.6-32.2l-8.4,32.2h-9.8L12.4,37.6z"/>
			<path d="M82.3,65.2c0.5,7.6,7.3,11.9,13.8,11.8c5.6,0,9.3-2.5,11.5-6.4h11.7c-2.3,5.3-5.6,9.3-9.7,12c-4,2.8-8.7,4.2-13.6,4.2     c-14.7,0-25.2-11.9-25.2-25.2c0-13.5,10.6-25.4,25-25.4c7.1,0,13.4,2.7,17.8,7.3c5.9,6,8,13.5,7,21.8     C120.8,65.2,82.3,65.2,82.3,65.2z M109.4,56.5c-0.4-4.5-5.2-10.8-13.5-10.7c-8.4,0-13,6.1-13.5,10.7H109.4z"/>
			<path d="M119.1,21h11.4v16.7v5.7c4.7-5.9,11.6-7.4,15.9-7.4c11.3,0,23.8,8.3,23.8,25.1c0,16.2-11.3,25.5-24.3,25.5     c-7.5,0-13.3-3.7-15.8-8.3v6.9h-11C119.1,85.2,119.1,21,119.1,21z M158.6,61.3c0-7.8-6-14.6-14.3-14.6c-8.8,0-14.4,6.9-14.4,14.7     c0,8,5.6,14.8,14.1,14.8C153.3,76.2,158.6,68.8,158.6,61.3L158.6,61.3L158.6,61.3z"/>
		</g>
		<g>
			<g>
				<path class="st8" d="M172.4,38.1h10.7V45c3.4-4.8,8.9-8.4,16.8-8.4c16.7,0,23.7,14.1,23.7,25.7c0,13.5-9.7,24.9-23.6,24.9      c-9.3,0-14.3-4.8-16.2-7.8v6.4v16.7h-11.3L172.4,38.1L172.4,38.1z M212.3,62c0-6.9-5-14.7-14.6-14.7c-4.2,0-7.8,1.7-10.3,4.3      s-4.1,6.4-4.1,10.5s1.5,7.8,4.2,10.3c2.6,2.6,6.2,4.2,10.3,4.2C206.6,76.7,212.3,69.8,212.3,62L212.3,62z"/>
				<path class="st8" d="M272.8,85.8h-11.3v-6.9c-3.1,5.6-9.4,8.3-16.1,8.3c-15.3,0-24.2-11.9-24.2-25.4c0-15,10.8-25.2,24.2-25.2      c8.7,0,14,4.6,16.1,8.4v-6.9h11.3V85.8z M232.4,62.2c0,5.9,4.2,14.5,14.5,14.5c6.4,0,10.5-3.3,12.7-7.6c1.1-2,1.7-4.3,1.8-6.7      c0.1-2.3-0.4-4.6-1.3-6.7c-2-4.5-6.4-8.4-13.3-8.4C237.6,47.3,232.4,54.8,232.4,62.2L232.4,62.2L232.4,62.2z"/>
				<path class="st8" d="M286.5,84l-18-45.9h12.1l11.6,31.7l11.5-31.7h12.1l-25.1,64.4h-12.1L286.5,84z"/>
			</g>
		</g>
		<g>
			<g>
				<path class="st9" d="M352.1,8.6c-0.9-0.9-2.3-0.9-3.1,0l-28.2,28.2c-0.9,0.9-1.5,1.5-1.5,1.5s0,1,0,2.2v32.2      c0,1.2,1,2.2,2.2,2.2h32.2c1.2,0,2.9-0.7,3.7-1.5l28.2-28.2c0.9-0.9,0.9-2.3,0-3.1L352.1,8.6z"/>
			</g>
			<g>
				<path class="st10" d="M324,41h2.8v2.7c1.2-1.8,3.1-3.1,5.9-3.1c5.3,0,7.8,4.4,7.8,8.3c0,4.4-3.1,8-7.8,8c-3.2,0-5.1-1.8-5.8-3      v2.6v5.6H324V41L324,41z M337.5,48.6c0-2.5-1.8-5.4-5.4-5.4c-1.5,0-2.9,0.6-3.8,1.6c-1,1-1.5,2.3-1.5,3.9c0,1.5,0.6,2.9,1.5,3.8      c1,1,2.3,1.5,3.8,1.5C335.3,54.1,337.5,51.6,337.5,48.6L337.5,48.6z"/>
				<path class="st10" d="M341.4,35.4h2.9v21h-2.9V35.4z"/>
				<path class="st10" d="M360.3,56.4h-2.8V54c-0.7,1.6-2.5,2.9-5.2,2.9c-5,0-6.2-3.7-6.2-6.8V41h2.9v8.3c0,2.8,1.1,4.8,4.1,4.8      c2.9,0,4.2-1.9,4.2-4.5V41h2.9v15.4H360.3z"/>
				<path class="st10" d="M368.8,45c0-1.2-0.7-2.1-2.3-2c-1.5,0-2.3,1-2.2,2c0.1,1.2,1.2,1.8,2.8,2.3c2.3,0.7,4.9,1.3,5,4.7      c0.1,3-2.4,5-5.5,5c-2.4,0-5.5-1.4-5.6-4.9h2.9c0.1,1.9,1.6,2.5,2.7,2.5c1.4,0,2.5-1,2.5-2.3c0-1.5-1.2-2-3.9-2.9      c-2.1-0.7-3.9-1.7-3.9-4c0-2.9,2.4-4.7,5.2-4.7c2.1,0,4.9,1,5.1,4.5L368.8,45L368.8,45z"/>
			</g>
		</g>
	</g>
</g>
</svg>